<svg xmlns="http://www.w3.org/2000/svg" width="122" height="33" viewBox="0 0 122 33">
    <g fill="#606060" fill-rule="nonzero">
        <path d="M7.18 17.6a.91.91 0 0 1-.34.27l-.51.27-.2-.45a5.07 5.07 0 0 1 .11-.69c.074-.202.16-.4.26-.59.33.164.645.358.94.58 0 .06-.14.41-.26.6M5.86 6.3a1.26 1.26 0 0 1 .89 1.57.48.48 0 0 1-.27.35c-.08 0-.31-.07-.35-.16-.17-.49-.31-1-.43-1.49 0-.08.11-.19.16-.27m-1 15.89a.65.65 0 0 1-.24.19c-.11.07-.23.12-.35.19 0-.13-.1-.25-.13-.31a3 3 0 0 1 .07-.47 3 3 0 0 1 .19-.41c.223.118.437.252.64.4 0 0-.09.28-.18.41m4.55 4.1c.37-.79 1.06-1.5.62-2.48a1.74 1.74 0 0 1-.1-.56c-.12-.85-.26-1.7-.35-2.55a1.48 1.48 0 0 1 .19-.83 1 1 0 0 0-.31-1.44.66.66 0 0 1-.3-.43c0-.16.17-.35.31-.48.14-.13.35-.1.45-.22.1-.12.6-.45.22-.83l-2.05-2a2.18 2.18 0 0 1-.67-2 1.75 1.75 0 0 0-.11-.91c-.35-.79-.29-.93.55-1.24a.81.81 0 0 0 .47-.49c0-.19-.14-.43-.26-.62s-.26-.21-.34-.32a.72.72 0 0 1-.15-.43c0-.06.24-.16.36-.15.42 0 .51-.24.43-.53a3.13 3.13 0 0 0-1.29-2.09 4.41 4.41 0 0 1-1.34-1.38c-.12-.2.27-.71.43-1.08v-.06c.27-.49.55-1 .8-1.49.11-.21.28-.54.19-.68-.16-.38-.24-1-.89-1a1 1 0 0 0-.66.39A9.55 9.55 0 0 0 4.87 2c-.25.66-.45 1.34-.66 2a6.26 6.26 0 0 0-1-.23c-.28 0-.73 0-.82.19a1.14 1.14 0 0 0 0 1c.11.2.57.3.86.29.61 0 .87.15.8.74 0 .33-.18.65-.23 1-.05.35-.18.73 0 1 .326.846.44 1.76.33 2.66a20 20 0 0 0 .2 4 .9.9 0 0 1 .33.94.33.33 0 0 1-.09.16 2.72 2.72 0 0 1 0 .64 1 1 0 0 1-.42.62c-.47.25-.48.49-.26.92.152.27.205.585.15.89a9.88 9.88 0 0 1-.68 1.81 12.58 12.58 0 0 0-1.29 2.75 10.43 10.43 0 0 0-.62 2.92A1.68 1.68 0 0 1 .29 28c-.36.16-.4.47 0 .67.4.2.79.3 1.18.46a30.26 30.26 0 0 1 2.82 1.27c.9.5 1.72 1.15 2.58 1.72.161.087.332.154.51.2a1.93 1.93 0 0 0 .18-.56v-1.5c0-.15.22-.32.38-.42.467-.277.918-.58 1.35-.91.26-.22.17-.53-.11-.82a1 1 0 0 1-.29-.79 5.3 5.3 0 0 1 .53-1M17 12.33a2.56 2.56 0 0 0-1.64.46 3.08 3.08 0 0 0-1 2.45 2.69 2.69 0 0 0 2.84 3 3.81 3.81 0 0 0 2.06-.58l.1.11-.23.47a4.39 4.39 0 0 1-2.12.53 3.28 3.28 0 0 1-3.49-3.44A3.31 3.31 0 0 1 17 11.78a6.33 6.33 0 0 1 2.13.35v.09l-.14.94h-.31c-.09-.61-1-.79-1.75-.79M27.31 18.67c-.19 0-1-.06-1.17-.06h-.2c-.2 0-1 .05-1.18.06v-.19c.196.02.393-.015.57-.1.11-.09.21-.21.25-.59V15.26h-3.66V17.73a.69.69 0 0 0 .26.59 1 1 0 0 0 .56.1h.05v.19c-.2 0-1-.06-1.18-.06h-.2c-.2 0-1 .05-1.18.06v-.19a1 1 0 0 0 .56-.1.72.72 0 0 0 .26-.59v-3.37a13.26 13.26 0 0 0 0-1.57.75.75 0 0 0-.25-.59 1 1 0 0 0-.56-.1v-.19c.2 0 1 .07 1.18.07h.2c.2 0 1-.06 1.18-.07v.19h-.05a1 1 0 0 0-.56.1.7.7 0 0 0-.26.59v2.02h3.74v-.45-1.57a.71.71 0 0 0-.25-.59 1.08 1.08 0 0 0-.57-.1v-.19c.2 0 1 .07 1.18.07h.2c.2 0 1-.06 1.17-.07v.19h-.05a1 1 0 0 0-.56.1.77.77 0 0 0-.26.59v4.92a.72.72 0 0 0 .26.59 1 1 0 0 0 .56.1h.05v.19l-.09.08zM30.88 15.15c1.17 0 1.64-.58 1.64-1.46s-.63-1.3-1.63-1.3H30c0 .78-.05 1.06-.05 1.37v1c0 .36 0 .38.4.38l.53.01zm-.05 3.52c-.2 0-1-.06-1.18-.06h-.2c-.2 0-1 .05-1.17.06v-.19h.05a1.27 1.27 0 0 0 .56-.09.81.81 0 0 0 .26-.6v-4.02-1a.81.81 0 0 0-.25-.59 1 1 0 0 0-.56-.1h-.05v-.19c.2 0 .67.07 1 .07h1.43c1.87 0 2.58.74 2.58 1.74a2 2 0 0 1-1.77 1.9c.44.6.93 1.22 1.43 1.79a2.41 2.41 0 0 0 1.84 1.08h.07v.19h-1c-.72 0-1-.32-1.7-1.12-.08-.08-.9-1.23-1.44-2h-.76v2.11a.72.72 0 0 0 .25.59 1 1 0 0 0 .57.1v.19l.04.14zM37.51 11.87v.19a1 1 0 0 0-.57.1.73.73 0 0 0-.26.59v4.92a.72.72 0 0 0 .26.59 1 1 0 0 0 .57.1v.19c-.2 0-1-.06-1.18-.06h-.2c-.2 0-1 .05-1.18.06v-.19h.06a1 1 0 0 0 .55-.1.75.75 0 0 0 .27-.59v-3.31-1.57a.81.81 0 0 0-.26-.59 1 1 0 0 0-.55-.1h-.06v-.19c.2 0 1 .07 1.18.07h.2c.2 0 1-.06 1.18-.07l-.01-.04zM41.18 14.72c1 .31 2.1.78 2.1 2.09 0 1.31-1.2 1.91-2.53 1.91a4.88 4.88 0 0 1-2.16-.5v-.14l.18-1.1H39l.06.07c.07.83.71 1.21 1.77 1.21s1.65-.55 1.65-1.32c0-1-.92-1.23-1.83-1.52-1.11-.34-2-.8-2-1.88 0-1.29 1-1.76 2.24-1.76a5.17 5.17 0 0 1 1.89.35v.11l-.15.92h-.29v-.05c-.06-.72-.94-.85-1.46-.85-.9 0-1.46.41-1.46 1.13s.56 1 1.76 1.33M48.29 18.67c-.2 0-.94-.06-1.14-.06h-.6c-.2 0-.92.05-1.12.06v-.19h.05a1.53 1.53 0 0 0 .68-.1.72.72 0 0 0 .29-.59v-3.43-2h-.12a5.87 5.87 0 0 0-1.85.11.67.67 0 0 0-.28.53v.05h-.24l.04-1.14v-.1h.06a15 15 0 0 0 2.09.12h1.32c.695.01 1.39-.03 2.08-.12h.07v.1l.08 1.17h-.25v-.05a.65.65 0 0 0-.29-.53 5.71 5.71 0 0 0-1.84-.11h-.11V17.75a.72.72 0 0 0 .29.59c.216.084.449.119.68.1h.05v.19l.06.04zM53 11.87v.19a1.08 1.08 0 0 0-.57.1.73.73 0 0 0-.25.59v4.92a.72.72 0 0 0 .25.59c.177.085.374.12.57.1v.19c-.2 0-1-.06-1.18-.06h-.2c-.2 0-1 .05-1.17.06v-.19h.05a1 1 0 0 0 .56-.1.75.75 0 0 0 .26-.59v-3.31-1.57a.81.81 0 0 0-.25-.59 1 1 0 0 0-.56-.1h-.05v-.19c.2 0 1 .07 1.17.07h.2c.2 0 1-.06 1.18-.07l-.01-.04zM54.56 12.2a1 1 0 0 0-.56-.1v-.19c.2 0 1 .07 1.18.07H57c.36 0 1.64-.05 1.76-.05l.06.11-.05 1.11h-.26c0-.63-.09-.64-1.77-.64h-1v2.46c.85 0 1.72 0 1.88-.17a.53.53 0 0 0 .21-.4v-.06H58.06a7.72 7.72 0 0 0-.06.82c0 .32 0 .58.06.91h-.24a.8.8 0 0 0-.21-.54 5.2 5.2 0 0 0-1.88-.14V17.86a.67.67 0 0 0 .29.59c.198.086.415.12.63.1h.05v.19l-1.28-.06h-.2c-.2 0-1 .05-1.18.06v-.19a1 1 0 0 0 .56-.1.75.75 0 0 0 .26-.59v-3.5-1.57a.77.77 0 0 0-.26-.59M62.08 11.87v.19a1 1 0 0 0-.56.1.73.73 0 0 0-.26.59v4.92a.72.72 0 0 0 .26.59 1 1 0 0 0 .56.1v.19c-.2 0-1-.06-1.18-.06h-.2c-.2 0-1 .05-1.18.06v-.19h.06a1 1 0 0 0 .55-.1.75.75 0 0 0 .27-.59v-3.31-1.57a.81.81 0 0 0-.26-.59 1 1 0 0 0-.55-.1h-.06v-.19c.2 0 1 .07 1.18.07h.2c.2 0 1-.06 1.18-.07l-.01-.04zM66.22 18.11a2.59 2.59 0 0 0 2.61-2.87 2.6 2.6 0 0 0-2.66-2.85h-1.45V17.75c0 .23.16.4.51.4l.99-.04zm-2.58-5.91a1 1 0 0 0-.56-.1v-.19c.2 0 .77.07 1.08.07h.6c.37 0 1.17-.05 1.51-.05a3.28 3.28 0 0 1 3.47 3.39 3.29 3.29 0 0 1-3.53 3.39h-1.96c-.2 0-1 .05-1.17.06v-.19a1.27 1.27 0 0 0 .56-.09.81.81 0 0 0 .26-.6v-3.53-1.57a.77.77 0 0 0-.26-.59zM73.66 11.89h1.76l.06.11v1.11h-.26c0-.63-.08-.64-1.77-.64h-1v2.46c.85 0 1.73 0 1.88-.17.15-.17.22-.2.22-.4v-.06h.18v1.73h-.19a.81.81 0 0 0-.22-.54 5.14 5.14 0 0 0-1.88-.14v1a14.47 14.47 0 0 0 0 1.69c0 .14.07.19.22.19h.89c1.69 0 1.78-.08 2-.83h.27l-.19 1.3-.08.11h-3.72c-.2 0-1 .05-1.18.06v-.19h.06a1 1 0 0 0 .55-.1.75.75 0 0 0 .27-.59v-3.63-1.57a.73.73 0 0 0-.27-.59 1 1 0 0 0-.55-.1h-.06v-.19c.2 0 1 .06 1.28.06l1.73-.08zM77.17 12.2a1 1 0 0 0-.55-.1h-.06v-.19c.2 0 1 .07 1.18.07h.2c.2 0 1-.06 1.18-.07v.19a1 1 0 0 0-.57.1.71.71 0 0 0-.25.59c-.03.52-.03 1.04 0 1.56v3.57c0 .14.06.19.21.19h.89c1.69 0 1.5-.08 1.69-.83h.28l-.19 1.3-.09.11h-3.36c-.2 0-1 .05-1.18.06v-.19h.06a1 1 0 0 0 .55-.1.78.78 0 0 0 .27-.59V14.36v-1.57a.76.76 0 0 0-.27-.59M85 11.89h1.76V13.11h-.26c0-.63-.09-.64-1.77-.64h-1v2.46c.85 0 1.72 0 1.88-.17a.53.53 0 0 0 .21-.4v-.06H86v1.73h-.19a.8.8 0 0 0-.21-.54 5.2 5.2 0 0 0-1.88-.14v1a14.47 14.47 0 0 0 0 1.69c0 .14.06.19.21.19h.9c1.69 0 1.77-.08 2-.83h.28l-.19 1.3-.09.11H83.14c-.2 0-1 .05-1.18.06v-.19a1 1 0 0 0 .56-.1.75.75 0 0 0 .26-.59v-3.63-1.57a.73.73 0 0 0-.26-.59 1 1 0 0 0-.56-.1v-.19c.2 0 1 .06 1.28.06l1.76-.08zM90.59 14.72c1 .31 2.11.78 2.11 2.09 0 1.31-1.2 1.91-2.54 1.91a4.8 4.8 0 0 1-2.15-.5l-.01-.14.18-1.1h.27v.07c.07.83.71 1.21 1.78 1.21s1.65-.55 1.65-1.32c0-1-.93-1.23-1.83-1.52-1.12-.34-2-.8-2-1.88 0-1.29 1-1.76 2.24-1.76a5.13 5.13 0 0 1 1.89.35v.11l-.14.92h-.3v-.05c0-.72-.94-.85-1.45-.85-.91 0-1.46.41-1.46 1.13s.55 1 1.75 1.33M96.93 12.2a1 1 0 0 0-.56-.1h-.05v-.19c.2 0 1 .07 1.18.07h.2c.2 0 1-.06 1.18-.07v.19a1.08 1.08 0 0 0-.57.1.71.71 0 0 0-.25.59v5.13c0 .14.06.19.21.19h.89c1.7 0 1.51-.08 1.7-.83h.27l-.19 1.3-.08.11h-3.38c-.2 0-1 .05-1.18.06v-.19h.05a1 1 0 0 0 .56-.1.78.78 0 0 0 .26-.59V14.36v-1.57a.77.77 0 0 0-.26-.59M103.63 15.3h2l-1-2.64-1 2.64zm1.52-3.52l1.72 4.66c.3.81.4 1.07.5 1.27.31.68.65.69 1 .69h.05v.19c-.2 0-.84-.06-1-.06h-.35c-.2 0-1 .05-1.19.06v-.19c.4 0 .64 0 .64-.43a7.54 7.54 0 0 0-.57-1.73l-.18-.5h-2.35l-.18.5a7.54 7.54 0 0 0-.57 1.73c0 .39.24.43.64.43h.05v.19c-.2 0-.92-.06-1.12-.06h-.2c-.2 0-.84.05-1 .06v-.19c.36 0 .69 0 1-.69.11-.2.21-.46 1.37-3.35.38-1 .81-2 .92-2.27l.62-.31h.2zM111.39 11.87v.19a1.08 1.08 0 0 0-.57.1.73.73 0 0 0-.25.59v4.92a.72.72 0 0 0 .25.59c.177.085.374.12.57.1v.19c-.2 0-1-.06-1.18-.06H110c-.2 0-1 .05-1.18.06v-.19h.05a1 1 0 0 0 .56-.1.72.72 0 0 0 .26-.59v-3.31-1.57a.77.77 0 0 0-.25-.59 1 1 0 0 0-.56-.1h-.05v-.19c.2 0 1 .07 1.18.07h.2c.2 0 1-.06 1.18-.07v-.04zM115.81 12.33a2.58 2.58 0 0 0-1.64.46 3.08 3.08 0 0 0-1 2.45 2.68 2.68 0 0 0 2.83 3 3.79 3.79 0 0 0 2.06-.58l.11.11-.23.47a4.41 4.41 0 0 1-2.12.53 3.29 3.29 0 0 1-3.5-3.44 3.31 3.31 0 0 1 3.54-3.5 6.37 6.37 0 0 1 2.13.35v.09l-.13.94h-.31c-.1-.61-1-.79-1.76-.79M121.69 11.87v.19a1.08 1.08 0 0 0-.57.1.73.73 0 0 0-.25.59v4.92a.72.72 0 0 0 .25.59c.177.085.374.12.57.1v.19c-.2 0-1-.06-1.17-.06h-.2c-.2 0-1 .05-1.18.06v-.19h.05a1 1 0 0 0 .56-.1.75.75 0 0 0 .26-.59v-3.31-1.57a.81.81 0 0 0-.25-.59 1 1 0 0 0-.56-.1h-.05v-.19c.2 0 1 .07 1.18.07h.2c.2 0 1-.06 1.17-.07l-.01-.04zM17.35 24.92H16.2v-.08a.42.42 0 0 0 .26-.05.3.3 0 0 0 .09-.26v-.57c-.1-1.3-.12-1.46-.13-1.58-.14.34-.76 1.86-1 2.49h-.19l-1-2.48v.62l-.07.85v.67c0 .14 0 .22.1.26.1.04.11.05.21.05v.1H13.4v-.08a.44.44 0 0 0 .26-.05.33.33 0 0 0 .13-.26c.03-.189.05-.379.06-.57l.07-.94v-.71c0-.14-.07-.33-.12-.33a.42.42 0 0 0-.26-.05v-.1H14.42a6.5 6.5 0 0 0 .32.94l.33.86c.08.218.17.431.27.64.37-.786.68-1.598.93-2.43H17.13v.1a.37.37 0 0 0-.25.05.26.26 0 0 0-.12.26v.7l.06.85c.006.225.03.449.07.67a.33.33 0 0 0 .13.26.39.39 0 0 0 .25.05v.1l.08.02zM20.42 23.37a1.21 1.21 0 0 0-1.22-1.31 1.15 1.15 0 0 0-1.15 1.31 1.19 1.19 0 0 0 1.18 1.33 1.21 1.21 0 0 0 1.19-1.33m.36 0a1.51 1.51 0 0 1-1.58 1.57 1.44 1.44 0 0 1-1.52-1.54 1.55 1.55 0 1 1 3.1 0M22.39 24.94l-.77-2.1c-.14-.36-.19-.48-.23-.57-.14-.31-.3-.31-.46-.31v-.1h1.17v.1c-.18 0-.29 0-.29.19.057.272.144.537.26.79l.32.85c.12.32.21.58.29.76l.29-.76.32-.85a3.75 3.75 0 0 0 .26-.79c0-.17-.11-.19-.29-.19v-.1h1.06v.08c-.16 0-.3 0-.46.31 0 .09-.09.21-.61 1.51-.17.43-.4 1-.45 1.11l-.25.05-.16.02zM25.53 21.86v.08a.37.37 0 0 0-.25.05.3.3 0 0 0-.12.26V24.47a.3.3 0 0 0 .12.26.37.37 0 0 0 .25.05v.08h-1.17v-.08a.37.37 0 0 0 .25-.05.3.3 0 0 0 .12-.26V23v-.71a.35.35 0 0 0-.12-.26.37.37 0 0 0-.25-.05v-.08h1.17v-.04zM29.86 24.92h-1.15v-.08a.4.4 0 0 0 .25-.05.3.3 0 0 0 .09-.26v-.57c-.1-1.3-.12-1.46-.13-1.58-.14.34-.76 1.86-1 2.49h-.2l-1-2.48v.62l-.07.85v.67c0 .14.05.22.1.26.05.04.11.05.21.05v.1h-1.07v-.08a.4.4 0 0 0 .25-.05.33.33 0 0 0 .13-.26c.03-.189.05-.379.06-.57l.07-.94v-.71a.26.26 0 0 0-.12-.26.39.39 0 0 0-.25-.05v-.1H26.91a6.5 6.5 0 0 0 .32.94l.33.86c.11.29.2.48.27.64.37-.786.68-1.598.93-2.43H29.62v.1a.39.39 0 0 0-.25.05.28.28 0 0 0-.11.26v.7l.06.85c.006.225.03.449.07.67a.33.33 0 0 0 .13.26.42.42 0 0 0 .26.05v.1l.08-.05zM31.34 21.86v.08a.42.42 0 0 0-.26.05c-.05 0-.1.09-.11.26a5.42 5.42 0 0 0 0 .7v1.52c0 .14.06.22.11.26a.42.42 0 0 0 .26.05v.1h-1.15v-.1a.39.39 0 0 0 .25-.05.33.33 0 0 0 .12-.26V23a5.42 5.42 0 0 0 0-.71.32.32 0 0 0-.11-.26.39.39 0 0 0-.25-.05v-.1h1.15l-.01-.02zM33.12 21.87h.79v.51h-.11c0-.29 0-.29-.8-.29h-.45V23.2c.38 0 .77 0 .84-.08a.24.24 0 0 0 .1-.18h.1v.77h-.12a.33.33 0 0 0-.1-.24c-.07-.08-.45-.06-.84-.06v.44a7.23 7.23 0 0 0 0 .76c0 .07 0 .09.09.09H33c.76 0 .8 0 .88-.37h.13l-.09.59h-2.21v-.08a.39.39 0 0 0 .25-.05.3.3 0 0 0 .12-.26V23v-.71A.3.3 0 0 0 32 22a.39.39 0 0 0-.25-.05v-.08h1.37zM37.56 21.86v.08a.37.37 0 0 0-.25.05c-.05 0-.1.09-.11.26-.01.17 0 .26 0 .7v1.94h-.27l-.05-.06-1.71-2.47v2.1c0 .14.06.22.12.26a.42.42 0 0 0 .26.05v.1h-1.08v-.1a.37.37 0 0 0 .25-.05s.1-.08.12-.26c.02-.18 0-.21 0-.57V23v-.71a.34.34 0 0 0-.14-.29.39.39 0 0 0-.25-.05v-.1h.75c.178.348.382.682.61 1 .48.75.88 1.24 1 1.38a2.76 2.76 0 0 0 0-.36V23v-.71c0-.14-.06-.22-.11-.26a.42.42 0 0 0-.26-.05v-.1h1.11l.01-.02zM39.79 24.92H38.5v-.1c.1 0 .26 0 .31-.05a.3.3 0 0 0 .13-.26V23v-.89h-.05a2.77 2.77 0 0 0-.84.05.28.28 0 0 0-.12.24h-.11v-.53c.312.039.626.055.94.05h.59a6.75 6.75 0 0 0 .94-.05v.53h-.12a.31.31 0 0 0-.13-.24 2.67 2.67 0 0 0-.83-.05v2.4a.3.3 0 0 0 .13.26.6.6 0 0 0 .31.05v.08l.14.02zM43.5 23.37a1.21 1.21 0 0 0-1.22-1.31 1.15 1.15 0 0 0-1.15 1.31 1.18 1.18 0 0 0 1.18 1.33 1.21 1.21 0 0 0 1.19-1.33m.36 0a1.51 1.51 0 0 1-1.58 1.57 1.44 1.44 0 0 1-1.52-1.54 1.55 1.55 0 1 1 3.1 0M46.7 23.38c.53 0 .74-.24.74-.66 0-.42-.28-.63-.73-.63h-.41v1.12c0 .16 0 .17.18.17h.22zm0 1.54h-1.15v-.1a.53.53 0 0 0 .25 0 .37.37 0 0 0 .12-.27V22.71v-.44a.32.32 0 0 0-.12-.26c-.06 0-.1-.05-.25-.05v-.1h1.08c.84 0 1.16.34 1.16.84 0 .72-.67.89-1.23.89h-.27v.9c0 .13.07.23.11.26.04.03.1.05.26.05v.1l.04.02zM48.77 23.4h.91l-.45-1.19-.46 1.19zm.68-1.58l.78 2.1c.13.36.18.48.22.57.15.31.3.31.46.31v.08H49.75v-.1c.18 0 .29 0 .29-.19a3.75 3.75 0 0 0-.26-.79l-.08-.22h-1.01l-.08.22a3.75 3.75 0 0 0-.26.79c0 .17.11.19.29.19v.1H47.57v-.1c.16 0 .31 0 .46-.31 0-.09.09-.21.61-1.51.17-.43.37-.89.42-1l.28-.13.11-.01zM52.28 23.33c.53 0 .74-.25.74-.65s-.28-.59-.73-.59h-.42v1.07c0 .16 0 .17.18.17h.23zm0 1.59h-1.15v-.1a.53.53 0 0 0 .25 0 .37.37 0 0 0 .12-.27v-1.84-.44a.35.35 0 0 0-.11-.26c-.06 0-.1-.05-.25-.05v-.1h1.08c.84 0 1.16.34 1.16.79a.91.91 0 0 1-.8.86c.203.278.42.545.65.8.185.283.492.465.83.49v.1h-.45c-.32 0-.46-.14-.76-.5 0 0-.41-.56-.65-.9h-.35v.95c-.015.1.027.2.11.26.06 0 .09.05.26.05v.08l.06.08z"/>
        <path d="M55 23.4h.91l-.45-1.19L55 23.4zm.69-1.58l.77 2.1c.14.36.18.48.23.57.14.31.29.31.45.31v.1H55.98v-.1c.18 0 .29 0 .29-.19a3.54 3.54 0 0 0-.25-.79L56 23.6h-1.11l-.08.22a3.54 3.54 0 0 0-.25.79c0 .17.11.19.29.19v.1h-1.06v-.1c.16 0 .3 0 .45-.31.05-.09.1-.21.62-1.51.17-.43.36-.89.41-1l.28-.13.14-.03zM58.78 22a.37.37 0 0 0-.25-.05v-.08H59.69v.08a.37.37 0 0 0-.25.05.3.3 0 0 0-.12.26V24.57c0 .07 0 .09.1.09h.4c.76 0 .68 0 .76-.37h.12l-.08.59H58.47v-.08a.37.37 0 0 0 .25-.05.33.33 0 0 0 .12-.26V23v-.71a.3.3 0 0 0-.12-.26"/>
        <path d="M61.81 23.4h.9l-.45-1.19-.45 1.19zm.68-1.58l.78 2.1c.13.36.18.48.22.57.14.31.29.31.46.31v.1H62.79v-.08c.18 0 .29 0 .29-.19a3.75 3.75 0 0 0-.26-.79l-.08-.22h-1.01l-.08.22a3.22 3.22 0 0 0-.26.79c0 .17.11.19.29.19v.08H60.61v-.1c.16 0 .31 0 .45-.31.05-.09.1-.21.62-1.51.17-.43.37-.89.42-1l.28-.13.11-.03zM68.48 21.86v.08a.37.37 0 0 0-.25.05s-.1.09-.11.26a5.42 5.42 0 0 0 0 .7v.82a8.8 8.8 0 0 0 0 1.12h-.28v-.06L66 22.39v2.1a.3.3 0 0 0 .12.26.41.41 0 0 0 .25.05v.1H65.26v-.1a.37.37 0 0 0 .25-.05s.1-.08.12-.26c.02-.18 0-.21 0-.57V23v-.71a.37.37 0 0 0-.12-.26.39.39 0 0 0-.25-.05v-.1H66.19c.174.35.378.685.61 1 .48.75.88 1.24 1 1.38V23v-.71c0-.14-.06-.22-.11-.26a.42.42 0 0 0-.26-.05v-.1h1.02l.03-.02zM72 21.86v.08a.42.42 0 0 0-.26.05.33.33 0 0 0-.11.26v1.6a1 1 0 0 1-1.15 1.07c-.88 0-1.2-.47-1.2-1.07V23v-.71a.3.3 0 0 0-.12-.26.37.37 0 0 0-.25-.05v-.08h1.15v.1a.42.42 0 0 0-.26.05.33.33 0 0 0-.11.26v1.47c0 .66.32.93.86.93s.88-.27.88-.93V23a5.42 5.42 0 0 0 0-.7c0-.17-.06-.22-.12-.26a.37.37 0 0 0-.25-.05v-.1H72.15l-.15-.03zM73.65 21.87h.8v.51h-.12c0-.29 0-.29-.8-.29h-.45V23.2c.39 0 .78 0 .85-.08a.24.24 0 0 0 .1-.18h.1v.77H74a.38.38 0 0 0-.1-.24 2.18 2.18 0 0 0-.85-.06v.44a4.83 4.83 0 0 0 0 .76c0 .07 0 .09.09.09h.4c.77 0 .81 0 .89-.37h.12l-.08.59h-2.21v-.1a.39.39 0 0 0 .25-.05.33.33 0 0 0 .12-.26V23v-.71a.3.3 0 0 0-.12-.26.39.39 0 0 0-.25-.05v-.1h.58l.81-.01zM76.18 24.94l-.78-2.1c-.13-.36-.18-.48-.22-.57-.18-.27-.3-.27-.46-.27v-.1h1.17v.08c-.18 0-.29 0-.29.19.057.272.144.537.26.79l.32.85c.12.32.21.58.28.76.07-.18.17-.42.3-.76l.32-.85a3.75 3.75 0 0 0 .26-.79c0-.17-.11-.19-.29-.19v-.1H78.12v.1c-.16 0-.31 0-.46.31 0 .09-.09.21-.61 1.51-.18.43-.4 1-.45 1.11l-.25.05-.17-.02zM78.74 23.4h.91l-.45-1.19-.46 1.19zm.68-1.58l.78 2.1c.13.36.18.48.22.57.15.31.3.31.46.31v.08H79.72v-.1c.18 0 .29 0 .29-.19a3.75 3.75 0 0 0-.26-.79l-.08-.22h-1.01l-.08.22a3.75 3.75 0 0 0-.26.79c0 .17.11.19.29.19v.1h-1.08v-.1c.16 0 .31 0 .46-.31 0-.09.09-.21.61-1.51.17-.43.37-.89.42-1l.28-.13.12-.01zM83.63 21.87h.79v.51h-.12c0-.29 0-.29-.8-.29H83V23.2c.38 0 .77 0 .84-.08a.24.24 0 0 0 .1-.18h.1v.77H84a.33.33 0 0 0-.1-.24c-.07-.08-.45-.06-.84-.06v.44a7.23 7.23 0 0 0 0 .76c0 .07 0 .09.09.09h.41c.76 0 .8 0 .88-.37h.13l-.09.59h-2.21v-.08a.39.39 0 0 0 .25-.05.33.33 0 0 0 .12-.26V23v-.71a.3.3 0 0 0-.12-.26.39.39 0 0 0-.22-.03v-.08h.58l.75-.05zM86.15 24.94l-.78-2.1c-.13-.36-.18-.48-.22-.57-.15-.27-.3-.27-.46-.27v-.1h1.17v.1c-.18 0-.29 0-.29.19.057.272.144.537.26.79l.32.85c.12.32.21.58.29.76l.29-.76.32-.85a3.75 3.75 0 0 0 .26-.79c0-.17-.11-.19-.29-.19v-.1H88.09v.08c-.16 0-.31 0-.46.31 0 .09-.09.21-.61 1.51-.17.43-.4 1-.45 1.11l-.25.05-.17-.02zM88.71 23.4h.91l-.45-1.19-.46 1.19zm.68-1.58l.78 2.1c.13.36.18.48.22.57.15.31.3.31.46.31v.08H89.69v-.1c.18 0 .29 0 .29-.19a3.75 3.75 0 0 0-.26-.79l-.08-.22h-1.01l-.08.22a3.75 3.75 0 0 0-.26.79c0 .17.11.19.29.19v.1h-1.05v-.1c.16 0 .31 0 .46-.31 0-.09.09-.21.61-1.51.17-.43.37-.89.42-1l.28-.13.09-.01zM94.19 21.86v.08a.37.37 0 0 0-.25.05c-.05 0-.09.09-.11.26-.02.17 0 .26 0 .7v1.94h-.27v-.06l-1.71-2.47v2.1c0 .14.06.22.12.26a.42.42 0 0 0 .26.05v.08h-1.12v-.08a.37.37 0 0 0 .25-.05c.05 0 .1-.08.12-.26.02-.18 0-.21 0-.57V23v-.71a.34.34 0 0 0-.12-.26c0-.05-.14-.05-.25-.05v-.08H91.93c.178.348.382.682.61 1 .48.75.89 1.24 1 1.38a2.76 2.76 0 0 0 0-.36V23v-.71a.33.33 0 0 0-.12-.26.4.4 0 0 0-.32-.03v-.08h1.11l-.02-.06zM97.11 24.78a3 3 0 0 1-1 .16 1.43 1.43 0 0 1-1.51-1.54 1.49 1.49 0 0 1 1.59-1.58c.34.006.678.067 1 .18l-.06.42H97c0-.3-.42-.38-.78-.38a1.2 1.2 0 0 0-.74.21c-.323.284-.5.7-.48 1.13a1.15 1.15 0 0 0 1.19 1.29 1.66 1.66 0 0 0 .59-.1v-.09-.42a.32.32 0 0 0-.12-.27.59.59 0 0 0-.28 0v-.12h1.03v.13c-.19 0-.25.12-.26.31-.01.19 0 .31 0 .49a1.34 1.34 0 0 0 0 .2l-.04-.02zM99.16 21.87h.8v.51h-.12c0-.29 0-.29-.79-.29h-.46V23.2c.38 0 .78 0 .85-.08a.23.23 0 0 0 .09-.18h.1v.77h-.13a.37.37 0 0 0-.09-.24 2.21 2.21 0 0 0-.85-.06v.44a7.23 7.23 0 0 0 0 .76c0 .07 0 .09.1.09h.4c.76 0 .8 0 .89-.37h.12l-.09.59h-2.23v-.08a.37.37 0 0 0 .25-.05.3.3 0 0 0 .12-.26V23v-.71a.3.3 0 0 0-.12-.26.37.37 0 0 0-.25-.05v-.08h.58l.83-.03zM100.74 22a.37.37 0 0 0-.25-.05v-.08H101.65v.1a.37.37 0 0 0-.25.05.3.3 0 0 0-.12.26V24.59c0 .07 0 .09.1.09h.4c.76 0 .68 0 .76-.37h.12l-.09.59h-2.09v-.08a.37.37 0 0 0 .25-.05.33.33 0 0 0 .12-.26V23v-.71a.3.3 0 0 0-.12-.26M104.06 21.86v.08a.42.42 0 0 0-.26.05s-.1.09-.11.26a5.42 5.42 0 0 0 0 .7v1.52c0 .14.06.22.11.26a.42.42 0 0 0 .26.05v.1h-1.15v-.1a.39.39 0 0 0 .25-.05.33.33 0 0 0 .12-.26V23a5.42 5.42 0 0 0 0-.71.32.32 0 0 0-.11-.26.39.39 0 0 0-.25-.05v-.1h1.15l-.01-.02zM104.53 22.37l.08-.5h2.24V22.04a17.73 17.73 0 0 0-1.82 2.62v.05h.35c1.13 0 1.25 0 1.34-.36h.28l-.08.6H104.52v-.16a14.35 14.35 0 0 0 1.8-2.62v-.05h-.63c-.7 0-.83 0-.88.29h-.09l-.19-.04zM108.26 23.4h.91l-.45-1.19-.46 1.19zm.68-1.58l.78 2.1c.13.36.18.48.22.57.15.31.3.31.46.31v.08h-1.17v-.1c.18 0 .29 0 .29-.19a3.75 3.75 0 0 0-.26-.79l-.08-.22h-1.06l-.08.22a3.75 3.75 0 0 0-.26.79c0 .17.11.19.29.19v.1H107v-.1c.16 0 .31 0 .46-.31 0-.09.09-.21.61-1.51.17-.43.37-.89.42-1l.28-.13.17-.01zM112.12 22.06a1.2 1.2 0 0 0-.74.21 1.41 1.41 0 0 0-.44 1.1 1.21 1.21 0 0 0 1.28 1.33 1.67 1.67 0 0 0 .93-.26v.06l-.1.2a2 2 0 0 1-1 .24 1.56 1.56 0 0 1 0-3.12 3 3 0 0 1 1 .15l-.06.43h-.14c0-.28-.43-.36-.79-.36M114.77 21.86v.08a.42.42 0 0 0-.26.05s-.1.09-.11.26a5.42 5.42 0 0 0 0 .7v1.52c0 .14.06.22.11.26a.42.42 0 0 0 .26.05v.1h-1.15v-.1a.39.39 0 0 0 .25-.05.33.33 0 0 0 .12-.26V23a5.42 5.42 0 0 0 0-.71.32.32 0 0 0-.11-.26.39.39 0 0 0-.25-.05v-.1h1.15l-.01-.02zM116.4 21.42v-.1l.85-.46a.16.16 0 0 1 .17.16.51.51 0 0 1 0 .09l-1 .35-.02-.04zm1.54 1.95a1.2 1.2 0 0 0-1.21-1.31 1.15 1.15 0 0 0-1.15 1.31 1.18 1.18 0 0 0 1.17 1.33 1.21 1.21 0 0 0 1.19-1.33zm.37 0a1.52 1.52 0 0 1-1.59 1.57 1.44 1.44 0 0 1-1.51-1.54 1.55 1.55 0 1 1 3.1 0v-.03zM121.88 21.86v.08a.37.37 0 0 0-.25.05c-.06 0-.1.09-.11.26a5.42 5.42 0 0 0 0 .7v.82a8.8 8.8 0 0 0 0 1.12h-.28v-.06l-1.71-2.47v2.1a.3.3 0 0 0 .12.26.39.39 0 0 0 .25.05v.1H118.79v-.1a.37.37 0 0 0 .25-.05s.1-.08.11-.26a3.23 3.23 0 0 0 0-.57V23a5.42 5.42 0 0 0 0-.71.33.33 0 0 0-.15-.29.39.39 0 0 0-.25-.05v-.1h.81c.174.35.378.685.61 1 .48.75.88 1.24 1 1.38V23v-.71a.33.33 0 0 0-.11-.26.42.42 0 0 0-.26-.05v-.1h1.11l-.03-.02z"/>
    </g>
</svg>
