<svg xmlns="http://www.w3.org/2000/svg" width="100" height="62" viewBox="0 0 100 62">
    <g fill="#606060" fill-rule="nonzero">
        <path d="M37.567 27.114c2.595 0 4.547-1.382 5.856-2.75v-.721c-.747.61-1.54 1.034-2.475 1.034-1.847 0-2.477-1.258-2.477-3.42 0-2.434 1.338-3.893 4.168-3.893h.787v-.63h-3.853c-4.404 0-7.51 1.928-7.549 5.348-.04 3.14 2.202 5.032 5.543 5.032zM44.999 11.033v11.638c0 3.342 1.416 4.443 4.56 4.443 2.36 0 4.483-1.022 5.111-3.185h-.63c-.628 1.18-1.297 1.77-1.886 1.77-.708 0-.708-.472-.708-1.612v-9.555c0-5.056-2.501-7.536-8.769-7.848v.68c1.666.403 2.322 1.863 2.322 3.67zM37.017 14.06c1.573 0 3.184-.786 3.774-1.886-1.573-.119-2.555-.59-2.555-2.006a2.856 2.856 0 0 1 2.12-2.786V6.69c-5.042.319-6.76 2.31-6.76 4.261 0 1.66 1.26 3.11 3.42 3.11zM82.29 14.06c1.573 0 3.185-.786 3.774-1.886-1.573-.119-2.555-.59-2.555-2.006a2.856 2.856 0 0 1 2.12-2.786V6.69c-5.042.319-6.757 2.31-6.757 4.261 0 1.66 1.255 3.11 3.418 3.11zM77.296 22.08c-.04 3.146 2.202 5.033 5.545 5.033 2.594 0 4.546-1.382 5.855-2.75v-.721c-.747.61-1.54 1.034-2.475 1.034-1.847 0-2.477-1.258-2.477-3.42 0-2.434 1.338-3.893 4.169-3.893h.786v-.63h-3.854c-4.403.002-7.509 1.927-7.549 5.348zM99.314 23.93c-.63 1.178-1.297 1.77-1.887 1.77-.708 0-.708-.473-.708-1.613v-9.555c0-5.056-2.501-7.536-8.769-7.848v.68c1.668.403 2.323 1.863 2.323 3.67V22.67c0 3.342 1.416 4.443 4.561 4.443 2.358 0 4.482-1.022 5.11-3.185h-.63zM77.278 7.067h-9.403v.642c2.518.165 3.62 1.947 3.62 4.007 0 1.901-.483 3.09-1.064 4.222l.41.528 3.468-6.532c.746-1.338 1.672-2.236 2.97-2.236l-.001-.63zM63.385 29.4c-1.39 2.274-2.57 3.578-3.872 3.578-1.533 0-1.965-1.14-1.927-2.634-.002-.334.05-.667.157-.983-2.122.59-3.46 2.005-3.46 3.695 0 2.006 1.258 3.5 3.46 3.5 2.663 0 4.149-3.276 6.195-7.157h-.553zM56.127 9.268l8.824 17.458h.414l3.38-6.372-4.833-10.073c-.664-1.376-.434-2.584.942-2.584v-.63H53.667v.63a2.696 2.696 0 0 1 2.46 1.57zM36.042 59.317c-1.966 0-2.712-1.14-2.712-3.341V41.468C30.539 42.608 27.59 43 23.933 43v.63c2.24 0 2.909.663 2.909 2.084v10.654c0 3.893 2.28 5.545 5.818 5.545 2.784 0 4.666-1.142 5.7-2.558v-.885a3.343 3.343 0 0 1-2.318.846zM47.483 60.104c-.708 0-1.062-.472-1.062-1.612V41.468C43.118 42.608 40.681 43 37.143 43v.63c2.122 0 2.792.663 2.792 2.084V58.06c0 2.28 1.965 3.853 4.718 3.853 2.595 0 4.718-1.023 5.347-3.185h-.63c-.628 1.18-1.297 1.376-1.887 1.376zM52.342 48.82h.63c.758-3.65 3.92-6.154 7.677-6.321l.414-.638h-8.721v6.959zM61.554 60.88l-.406.64h9.514v-8.06h-.63c-.72 4.183-4.529 7.226-8.478 7.42zM51.32 61.52h7.077l12.385-19.66h-6.959zM76.624 51.583v9.906a109.06 109.06 0 0 1 8.093-4.954 109.72 109.72 0 0 1-8.058-4.931l-.035-.021zM19.886 2.633v21.46c0 1.06-.59 2.004-2.948 2.004v.63h12.576v-.632c-2.358 0-2.947-.943-2.947-2.004V2.633c0-1.061.59-2.005 2.947-2.005V0H16.938v.63c2.358-.04 2.948.942 2.948 2.003z"/>
        <path d="M12.537 26.095c-2.324 0-2.909-.943-2.909-2.004V14.03l7.895-.187v-.648l-7.9-.187V2.633c0-1.061.59-2.005 2.91-2.005V0H0v.63c2.358 0 2.948.943 2.948 2.004v21.46c0 1.06-.59 2.004-2.948 2.004v.63h12.537v-.633zM12.576 34.79H0v.63c2.358 0 2.948.944 2.948 2.005v21.46c0 1.06-.59 2.004-2.948 2.004v.63h9.624V37.425c0-1.061.59-2.005 2.948-2.005l.004-.63zM11.986 60.856v.664h10.377v-8.258h-.708c-1.88 5.793-4.398 7.167-9.67 7.594z"/>
    </g>
</svg>
