<svg xmlns="http://www.w3.org/2000/svg" width="18" height="18" viewBox="0 0 18 18">
    <path fill="#606060" fill-rule="evenodd" d="M12 9c0-1.652-1.348-3-3-3S6 7.348 6 9s1.348 3 3 3 3-1.348 3-3zm1.617 0A4.61 4.61 0 0 1 9 13.617 4.61 4.61 0 0 1 4.383 9 4.61 4.61 0 0 1 9 4.383 4.61 4.61 0 0 1 13.617 9zm1.265-4.804c0 .597-.48 1.078-1.078 1.078-.597 0-1.078-.48-1.078-1.078 0-.598.48-1.078 1.078-1.078.598 0 1.078.48 1.078 1.078zM9 1.618c-1.312 0-4.125-.106-5.308.363-.41.164-.715.363-1.031.68a2.877 2.877 0 0 0-.68 1.03C1.512 4.876 1.618 7.689 1.618 9c0 1.312-.106 4.125.363 5.308.164.41.363.715.68 1.031.316.317.62.516 1.03.68 1.184.469 3.997.363 5.309.363 1.312 0 4.125.106 5.308-.363.41-.164.715-.363 1.031-.68.317-.316.516-.62.68-1.03.469-1.184.363-3.997.363-5.309 0-1.312.106-4.125-.363-5.308a2.877 2.877 0 0 0-.68-1.031 2.877 2.877 0 0 0-1.03-.68c-1.184-.469-3.997-.363-5.309-.363zM18 9c0 1.242.011 2.472-.06 3.715-.07 1.44-.398 2.718-1.452 3.773-1.055 1.054-2.332 1.382-3.773 1.453-1.243.07-2.473.058-3.715.058s-2.472.012-3.715-.058c-1.44-.07-2.718-.399-3.773-1.453C.458 15.433.13 14.156.06 12.715-.01 11.472.001 10.242.001 9s-.012-2.472.058-3.715c.07-1.44.399-2.718 1.453-3.773C2.567.458 3.844.13 5.285.06 6.528-.01 7.758.001 9 .001s2.472-.012 3.715.058c1.44.07 2.718.399 3.773 1.453 1.054 1.055 1.382 2.332 1.453 3.773.07 1.243.058 2.473.058 3.715z"/>
</svg>
