<svg xmlns="http://www.w3.org/2000/svg" width="46" height="40" viewBox="0 0 46 40">
    <path fill="#748AB6" fill-rule="evenodd" d="M11.337 40c-3.78 0-6.613-1.373-8.503-4.118C.944 33.137 0 29.305 0 24.385c0-5.348 1.355-10.071 4.064-14.171C6.774 6.114 10.98 2.709 16.684 0l3.85 7.914c-3.422 1.498-5.989 3.334-7.7 5.508-1.711 2.175-2.567 4.867-2.567 8.075.214-.071.57-.107 1.07-.107 2.567 0 4.741.785 6.524 2.353 1.783 1.569 2.674 3.708 2.674 6.417 0 2.995-.856 5.384-2.567 7.166C16.257 39.11 14.046 40 11.337 40zm25.26 0c-3.779 0-6.613-1.373-8.502-4.118-1.89-2.745-2.835-6.577-2.835-11.497 0-5.348 1.355-10.071 4.065-14.171 2.71-4.1 6.916-7.505 12.62-10.214l3.85 7.914c-3.422 1.498-5.99 3.334-7.7 5.508-1.712 2.175-2.567 4.867-2.567 8.075.214-.071.57-.107 1.07-.107 2.566 0 4.74.785 6.523 2.353 1.783 1.569 2.674 3.708 2.674 6.417 0 2.995-.855 5.384-2.567 7.166C41.518 39.11 39.307 40 36.598 40z" opacity=".25"/>
</svg>
