<?xml version="1.0" standalone="no"?>
<!DOCTYPE svg PUBLIC "-//W3C//DTD SVG 20010904//EN"
 "http://www.w3.org/TR/2001/REC-SVG-20010904/DTD/svg10.dtd">
<svg version="1.0" xmlns="http://www.w3.org/2000/svg"
 width="260.000000pt" height="260.000000pt" viewBox="0 0 260.000000 260.000000"
 preserveAspectRatio="xMidYMid meet">
<metadata>
Created by potrace 1.11, written by Peter Selinger 2001-2013
</metadata>
<g transform="translate(0.000000,260.000000) scale(0.100000,-0.100000)"
fill="#000000" stroke="none">
<path d="M333 1457 l2 -832 225 0 225 0 1 265 c1 146 2 270 3 275 1 7 40 10
104 10 324 -2 529 117 615 356 23 66 26 89 26 214 1 121 -2 149 -22 207 -43
125 -111 202 -232 263 -38 19 -73 35 -77 35 -5 0 -24 5 -43 10 -74 20 -126 23
-472 25 l-357 3 2 -831z m644 454 c82 -22 119 -98 100 -207 -16 -100 -90 -155
-214 -161 -53 -2 -73 1 -74 10 -1 6 -2 90 -3 185 -1 127 2 175 11 180 17 10
134 5 180 -7z"/>
<path d="M1816 2282 c-2 -4 -4 -369 -4 -812 0 -443 -3 -821 -7 -840 -7 -39
-37 -107 -57 -130 -40 -45 -151 -61 -247 -35 -27 7 -52 10 -55 7 -3 -3 -6 -83
-6 -179 0 -131 3 -173 13 -174 6 0 21 -3 32 -6 42 -10 292 -12 345 -2 75 14
206 80 256 128 54 52 97 121 128 203 51 134 53 189 55 1051 l1 798 -225 -1
c-124 -1 -227 -4 -229 -8z"/>
</g>
</svg>
